<svg id="Layer_1" data-name="Layer 1" xmlns="http://www.w3.org/2000/svg" viewBox="0 0 283.46 283.39903"><defs><style>.cls-1{fill:#5fbb46;}.cls-2{fill:#dea73a;}.cls-3{fill:#c5202e;}.cls-4{fill:#4ca046;}.cls-5{fill:#407f44;}.cls-6{fill:#fac315;}.cls-7{fill:#ef402c;}.cls-8{fill:#f99e28;}.cls-9{fill:#1c97d4;}.cls-10{fill:#a21c44;}.cls-11{fill:#29bee2;}.cls-12{fill:#f26a2c;}.cls-13{fill:#e7233b;}.cls-14{fill:#dd1768;}.cls-15{fill:#18496b;}.cls-16{fill:#bf8b2c;}.cls-17{fill:#01699e;}</style></defs><title>Untitled-2</title><path class="cls-1" d="M72.81953,101.33051A80.609,80.609,0,0,1,85.52247,84.98829L43.868,39.31092a142.63482,142.63482,0,0,0-26.44529,34.4234Z" transform="translate(0 -0.06097)"/><path class="cls-2" d="M174.93582,69.06036A79.82577,79.82577,0,0,1,192.405,80.00513l41.76932-45.605a142.11233,142.11233,0,0,0-37.0199-23.09669Z" transform="translate(0 -0.06097)"/><path class="cls-3" d="M270.59909,82.796l-55.36718,27.59955a79.16329,79.16329,0,0,1,5.54564,19.5625l61.58712-5.81509a140.2471,140.2471,0,0,0-11.76559-41.347" transform="translate(0 -0.06097)"/><path class="cls-4" d="M211.26189,102.39316l55.36044-27.59486a142.26228,142.26228,0,0,0-25.87271-34.34423L198.98,86.04892a80.26764,80.26764,0,0,1,12.28192,16.34424" transform="translate(0 -0.06097)"/><path class="cls-5" d="M61.81716,141.73671c0-1.24315.03941-2.48836.09532-3.72817L.31223,132.49591C.11822,135.5498,0,138.63,0,141.73671a142.05177,142.05177,0,0,0,4.19367,34.26513l59.4982-17.0674a79.87621,79.87621,0,0,1-1.87471-17.19772" transform="translate(0 -0.06097)"/><path class="cls-6" d="M203.51247,192.37067a80.9113,80.9113,0,0,1-15.02494,14.132L221.011,259.16459a142.894,142.894,0,0,0,31.85284-29.5817Z" transform="translate(0 -0.06097)"/><path class="cls-7" d="M221.63947,141.73671a79.15116,79.15116,0,0,1-1.83227,16.99869L279.29563,175.826A141.22731,141.22731,0,0,0,283.46,141.73671q0-4.37366-.28292-8.69991L221.58356,138.857c.03267.964.05591,1.91785.05591,2.87976" transform="translate(0 -0.06097)"/><path class="cls-8" d="M80.94382,193.54985,31.711,230.97124A142.9324,142.9324,0,0,0,63.8596,260.09689l32.52377-52.60734a80.79068,80.79068,0,0,1-15.43956-13.9397" transform="translate(0 -0.06097)"/><path class="cls-9" d="M62.81717,129.12272a78.75135,78.75135,0,0,1,5.90065-19.84542L13.37388,81.704A140.64705,140.64705,0,0,0,1.161,123.59358Z" transform="translate(0 -0.06097)"/><path class="cls-10" d="M213.44579,263.92714l-32.47729-52.5925a79.44236,79.44236,0,0,1-18.95589,7.70327l11.45976,60.837a140.76979,140.76979,0,0,0,39.97343-15.94781" transform="translate(0 -0.06097)"/><path class="cls-11" d="M217.43906,167.34976a79.96389,79.96389,0,0,1-8.64736,17.806l49.39075,37.25534a141.18455,141.18455,0,0,0,18.6989-37.9805Z" transform="translate(0 -0.06097)"/><path class="cls-12" d="M153.25342,220.81225a78.981,78.981,0,0,1-20.8269.28966l-11.453,60.837a142.42792,142.42792,0,0,0,43.73295-.34386Z" transform="translate(0 -0.06097)"/><path class="cls-13" d="M146.83981,61.98524a79.235,79.235,0,0,1,19.77132,3.8188L188.8294,8.05859A140.77944,140.77944,0,0,0,146.83981.11217Z" transform="translate(0 -0.06097)"/><path class="cls-14" d="M123.62119,219.58052a79.48845,79.48845,0,0,1-19.61672-7.41867L71.46419,264.79074a140.98892,140.98892,0,0,0,40.71374,15.56283Z" transform="translate(0 -0.06097)"/><path class="cls-15" d="M117.71044,65.51775A79.204,79.204,0,0,1,137.90278,61.926V.061A141.17512,141.17512,0,0,0,95.3406,7.81544Z" transform="translate(0 -0.06097)"/><path class="cls-16" d="M75.52651,186.43867a79.4734,79.4734,0,0,1-9.42675-18.89827L6.64736,184.60475a141.11971,141.11971,0,0,0,19.6366,39.252Z" transform="translate(0 -0.06097)"/><path class="cls-17" d="M92.216,79.05767a80.05253,80.05253,0,0,1,17.13676-10.36918L86.996,11.01416A141.77012,141.77012,0,0,0,50.53187,33.3446Z" transform="translate(0 -0.06097)"/></svg>