{
    "asset" : {
        "generator" : "Khronos glTF Blender I/O v1.3.48",
        "version" : "2.0"
    },
    "scene" : 0,
    "scenes" : [
        {
            "name" : "Scene",
            "nodes" : [
                0,
                1,
                2,
                3,
                4,
                5
            ]
        }
    ],
    "nodes" : [
        {
            "mesh" : 0,
            "name" : "gonna",
            "translation" : [
                0,
                1,
                0
            ]
        },
        {
            "mesh" : 1,
            "name" : "testa",
            "scale" : [
                0.7806532979011536,
                0.7806532979011536,
                0.7806532979011536
            ],
            "translation" : [
                0,
                2.8824501037597656,
                0
            ]
        },
        {
            "mesh" : 2,
            "name" : "bracciodx",
            "rotation" : [
                0.8912403583526611,
                0,
                0,
                0.45353129506111145
            ],
            "scale" : [
                0.2875038683414459,
                0.6298990845680237,
                0.2875038683414459
            ],
            "translation" : [
                0,
                1.3721264600753784,
                0.8018143773078918
            ]
        },
        {
            "mesh" : 3,
            "name" : "bracciosx",
            "rotation" : [
                -0.8977370858192444,
                0,
                0,
                0.4405316412448883
            ],
            "scale" : [
                0.2875038683414459,
                0.6298990845680237,
                0.2875038683414459
            ],
            "translation" : [
                0,
                1.3721263408660889,
                -0.7728083729743958
            ]
        },
        {
            "mesh" : 4,
            "name" : "gambasx",
            "rotation" : [
                1,
                0,
                0,
                -4.371138828673793e-08
            ],
            "scale" : [
                0.34768640995025635,
                0.6097021102905273,
                0.34768640995025635
            ],
            "translation" : [
                0,
                -0.5349918007850647,
                -0.40643808245658875
            ]
        },
        {
            "mesh" : 5,
            "name" : "gambadx",
            "rotation" : [
                1,
                0,
                0,
                -4.371138828673793e-08
            ],
            "scale" : [
                0.34768640995025635,
                0.6097021102905273,
                0.34768640995025635
            ],
            "translation" : [
                0,
                -0.5349918007850647,
                0.40416082739830017
            ]
        }
    ],
    "animations" : [
        {
            "channels" : [
                {
                    "sampler" : 0,
                    "target" : {
                        "node" : 2,
                        "path" : "translation"
                    }
                },
                {
                    "sampler" : 1,
                    "target" : {
                        "node" : 2,
                        "path" : "rotation"
                    }
                }
            ],
            "name" : "saluto",
            "samplers" : [
                {
                    "input" : 21,
                    "interpolation" : "LINEAR",
                    "output" : 22
                },
                {
                    "input" : 21,
                    "interpolation" : "LINEAR",
                    "output" : 23
                }
            ]
        }
    ],
    "materials" : [
        {
            "doubleSided" : true,
            "emissiveFactor" : [
                0,
                0,
                0
            ],
            "name" : "red",
            "pbrMetallicRoughness" : {
                "baseColorTexture" : {
                    "index" : 0,
                    "texCoord" : 0
                },
                "metallicFactor" : 0,
                "roughnessFactor" : 0.5
            }
        }
    ],
    "meshes" : [
        {
            "name" : "gonna",
            "primitives" : [
                {
                    "attributes" : {
                        "POSITION" : 0,
                        "NORMAL" : 1,
                        "TEXCOORD_0" : 2
                    },
                    "indices" : 3,
                    "material" : 0
                }
            ]
        },
        {
            "name" : "Sphere",
            "primitives" : [
                {
                    "attributes" : {
                        "POSITION" : 4,
                        "NORMAL" : 5,
                        "TEXCOORD_0" : 6
                    },
                    "indices" : 7,
                    "material" : 0
                }
            ]
        },
        {
            "name" : "Cylinder.001",
            "primitives" : [
                {
                    "attributes" : {
                        "POSITION" : 8,
                        "NORMAL" : 9,
                        "TEXCOORD_0" : 10
                    },
                    "indices" : 11,
                    "material" : 0
                }
            ]
        },
        {
            "name" : "Cylinder.002",
            "primitives" : [
                {
                    "attributes" : {
                        "POSITION" : 12,
                        "NORMAL" : 13,
                        "TEXCOORD_0" : 14
                    },
                    "indices" : 11,
                    "material" : 0
                }
            ]
        },
        {
            "name" : "Cylinder.003",
            "primitives" : [
                {
                    "attributes" : {
                        "POSITION" : 15,
                        "NORMAL" : 16,
                        "TEXCOORD_0" : 17
                    },
                    "indices" : 11,
                    "material" : 0
                }
            ]
        },
        {
            "name" : "Cylinder.004",
            "primitives" : [
                {
                    "attributes" : {
                        "POSITION" : 18,
                        "NORMAL" : 19,
                        "TEXCOORD_0" : 20
                    },
                    "indices" : 11,
                    "material" : 0
                }
            ]
        }
    ],
    "textures" : [
        {
            "source" : 0
        }
    ],
    "images" : [
        {
            "bufferView" : 4,
            "mimeType" : "image/png",
            "name" : "1_goal_diffuse"
        }
    ],
    "accessors" : [
        {
            "bufferView" : 0,
            "componentType" : 5126,
            "count" : 194,
            "max" : [
                1.205657720565796,
                1,
                1.205657720565796
            ],
            "min" : [
                -1.205657720565796,
                -1,
                -1.2056576013565063
            ],
            "type" : "VEC3"
        },
        {
            "bufferView" : 1,
            "componentType" : 5126,
            "count" : 194,
            "type" : "VEC3"
        },
        {
            "bufferView" : 2,
            "componentType" : 5126,
            "count" : 194,
            "type" : "VEC2"
        },
        {
            "bufferView" : 3,
            "componentType" : 5123,
            "count" : 756,
            "type" : "SCALAR"
        },
        {
            "bufferView" : 5,
            "componentType" : 5126,
            "count" : 559,
            "max" : [
                1.000000238418579,
                1,
                1.0000003576278687
            ],
            "min" : [
                -0.9999998211860657,
                -1,
                -1
            ],
            "type" : "VEC3"
        },
        {
            "bufferView" : 6,
            "componentType" : 5126,
            "count" : 559,
            "type" : "VEC3"
        },
        {
            "bufferView" : 7,
            "componentType" : 5126,
            "count" : 559,
            "type" : "VEC2"
        },
        {
            "bufferView" : 8,
            "componentType" : 5123,
            "count" : 2880,
            "type" : "SCALAR"
        },
        {
            "bufferView" : 9,
            "componentType" : 5126,
            "count" : 460,
            "max" : [
                1,
                1.4523377418518066,
                1
            ],
            "min" : [
                -1,
                -1,
                -1
            ],
            "type" : "VEC3"
        },
        {
            "bufferView" : 10,
            "componentType" : 5126,
            "count" : 460,
            "type" : "VEC3"
        },
        {
            "bufferView" : 11,
            "componentType" : 5126,
            "count" : 460,
            "type" : "VEC2"
        },
        {
            "bufferView" : 12,
            "componentType" : 5123,
            "count" : 2292,
            "type" : "SCALAR"
        },
        {
            "bufferView" : 13,
            "componentType" : 5126,
            "count" : 460,
            "max" : [
                1,
                1.4523377418518066,
                1
            ],
            "min" : [
                -1,
                -1,
                -1
            ],
            "type" : "VEC3"
        },
        {
            "bufferView" : 14,
            "componentType" : 5126,
            "count" : 460,
            "type" : "VEC3"
        },
        {
            "bufferView" : 15,
            "componentType" : 5126,
            "count" : 460,
            "type" : "VEC2"
        },
        {
            "bufferView" : 16,
            "componentType" : 5126,
            "count" : 460,
            "max" : [
                1,
                1.4523377418518066,
                1
            ],
            "min" : [
                -1,
                -1,
                -1
            ],
            "type" : "VEC3"
        },
        {
            "bufferView" : 17,
            "componentType" : 5126,
            "count" : 460,
            "type" : "VEC3"
        },
        {
            "bufferView" : 18,
            "componentType" : 5126,
            "count" : 460,
            "type" : "VEC2"
        },
        {
            "bufferView" : 19,
            "componentType" : 5126,
            "count" : 460,
            "max" : [
                1,
                1.4523377418518066,
                1
            ],
            "min" : [
                -1,
                -1,
                -1
            ],
            "type" : "VEC3"
        },
        {
            "bufferView" : 20,
            "componentType" : 5126,
            "count" : 460,
            "type" : "VEC3"
        },
        {
            "bufferView" : 21,
            "componentType" : 5126,
            "count" : 460,
            "type" : "VEC2"
        },
        {
            "bufferView" : 22,
            "componentType" : 5126,
            "count" : 235,
            "max" : [
                9.791666666666666
            ],
            "min" : [
                0.041666666666666664
            ],
            "type" : "SCALAR"
        },
        {
            "bufferView" : 23,
            "componentType" : 5126,
            "count" : 235,
            "type" : "VEC3"
        },
        {
            "bufferView" : 24,
            "componentType" : 5126,
            "count" : 235,
            "type" : "VEC4"
        }
    ],
    "bufferViews" : [
        {
            "buffer" : 0,
            "byteLength" : 2328,
            "byteOffset" : 0
        },
        {
            "buffer" : 0,
            "byteLength" : 2328,
            "byteOffset" : 2328
        },
        {
            "buffer" : 0,
            "byteLength" : 1552,
            "byteOffset" : 4656
        },
        {
            "buffer" : 0,
            "byteLength" : 1512,
            "byteOffset" : 6208
        },
        {
            "buffer" : 0,
            "byteLength" : 170,
            "byteOffset" : 7720
        },
        {
            "buffer" : 0,
            "byteLength" : 6708,
            "byteOffset" : 7892
        },
        {
            "buffer" : 0,
            "byteLength" : 6708,
            "byteOffset" : 14600
        },
        {
            "buffer" : 0,
            "byteLength" : 4472,
            "byteOffset" : 21308
        },
        {
            "buffer" : 0,
            "byteLength" : 5760,
            "byteOffset" : 25780
        },
        {
            "buffer" : 0,
            "byteLength" : 5520,
            "byteOffset" : 31540
        },
        {
            "buffer" : 0,
            "byteLength" : 5520,
            "byteOffset" : 37060
        },
        {
            "buffer" : 0,
            "byteLength" : 3680,
            "byteOffset" : 42580
        },
        {
            "buffer" : 0,
            "byteLength" : 4584,
            "byteOffset" : 46260
        },
        {
            "buffer" : 0,
            "byteLength" : 5520,
            "byteOffset" : 50844
        },
        {
            "buffer" : 0,
            "byteLength" : 5520,
            "byteOffset" : 56364
        },
        {
            "buffer" : 0,
            "byteLength" : 3680,
            "byteOffset" : 61884
        },
        {
            "buffer" : 0,
            "byteLength" : 5520,
            "byteOffset" : 65564
        },
        {
            "buffer" : 0,
            "byteLength" : 5520,
            "byteOffset" : 71084
        },
        {
            "buffer" : 0,
            "byteLength" : 3680,
            "byteOffset" : 76604
        },
        {
            "buffer" : 0,
            "byteLength" : 5520,
            "byteOffset" : 80284
        },
        {
            "buffer" : 0,
            "byteLength" : 5520,
            "byteOffset" : 85804
        },
        {
            "buffer" : 0,
            "byteLength" : 3680,
            "byteOffset" : 91324
        },
        {
            "buffer" : 0,
            "byteLength" : 940,
            "byteOffset" : 95004
        },
        {
            "buffer" : 0,
            "byteLength" : 2820,
            "byteOffset" : 95944
        },
        {
            "buffer" : 0,
            "byteLength" : 3760,
            "byteOffset" : 98764
        }
    ],
    "buffers" : [
        {
            "byteLength" : 102524,
            "uri" : "data:application/octet-stream;base64,"
        }
    ]
}
